<svg xmlns="http://www.w3.org/2000/svg" width="499.504" height="98.894" viewBox="0 0 499.504 98.894"><g transform="translate(0 0.01)"><path d="M64.659,27.607c-3.349,0-4.759-1.41-4.759-4.054v-.7c0-2.644,1.41-4.054,4.759-4.054h3.877V10.511c0-3.7,1.939-5.111,4.935-5.111h1.057c2.82,0,4.759,1.057,4.759,5.111v8.107H91.272c3.349,0,4.582,1.41,4.582,4.054v.7c0,2.82-1.41,4.23-4.759,4.23H79.111V54.4c0,6.7,1.939,9.87,7.05,9.87a9.6,9.6,0,0,0,7.579-3.7c.352-.352,3.172,1.234,3.172,4.582,0,4.054-4.582,8.107-12.337,8.107-10.927,0-15.862-5.992-15.862-17.625V27.607Z" transform="translate(45.673 4.125)" fill="#0da0a0"/><path d="M109.623,59.334c9.341,0,13.924-4.054,16.744-8.812.176-.176,5.816.7,5.816,5.464,0,4.582-8.107,11.985-22.56,11.985C92.88,67.971,81.6,56.867,81.6,40.3c0-16.039,11.456-28.2,27.142-28.2,15.334,0,25.556,10.751,25.556,26.613v.881c0,2.291-.7,3.172-3.349,3.172h-39.3A17.316,17.316,0,0,0,109.623,59.334Zm13.924-23.793c-.529-9.165-6.169-15.157-14.981-15.157A16.937,16.937,0,0,0,91.822,35.541Z" transform="translate(62.218 9.234)" fill="#0da0a0"/><path d="M136.437,45.382,124.981,62.126c-1.939,3-4.054,4.582-6.874,4.582-3.877,0-6.345-3.7-5.992-4.054l17.625-22.912L112.467,16.654c-.352-.529,1.939-4.054,5.816-4.054,3,0,4.935,1.586,6.874,4.582L136.965,34.1,148.6,17.182c2.115-3.349,4.582-4.582,6.7-4.582,4.054,0,6.345,3.525,5.992,4.054L143.663,39.742l17.272,22.912c.353.529-1.939,4.054-5.992,4.054-3,0-4.935-1.586-6.7-4.582Z" transform="translate(85.46 9.615)" fill="#0da0a0"/><path d="M146.459,27.607c-3.349,0-4.759-1.41-4.759-4.054v-.7c0-2.644,1.41-4.054,4.759-4.054h3.877V10.511c0-3.7,1.939-5.111,4.935-5.111h1.057c2.82,0,4.759,1.057,4.759,5.111v8.107h11.985c3.349,0,4.582,1.41,4.582,4.054v.7c0,2.82-1.41,4.23-4.759,4.23H160.911V54.4c0,6.7,1.939,9.87,7.05,9.87a9.6,9.6,0,0,0,7.579-3.7c.352-.352,3.172,1.234,3.172,4.582,0,4.054-4.582,8.107-12.337,8.107-10.927,0-15.862-5.992-15.862-17.625V27.607Z" transform="translate(108.043 4.125)" fill="#0da0a0"/><path d="M194.028,21.326c13.924,0,20.445,9.694,20.445,22.912V70.852c0,4.054-2.115,5.111-4.935,5.111H208.3c-2.82,0-4.935-1.234-4.935-5.111v-25.2c0-9.165-4.582-14.629-12.161-14.629-8.989,0-14.8,5.992-14.8,15.51v24.5c0,4.054-2.115,5.111-4.935,5.111h-1.234c-2.82,0-4.935-1.234-4.935-5.111V1.234C165.3.881,167.063,0,169.354,0c3.349,0,6.874,1.762,6.874,9.341V31.02a21.088,21.088,0,0,1,17.8-9.694Z" transform="translate(126.038 0.008)" fill="#0da0a0"/><path d="M225.223,59.334c9.341,0,13.924-4.054,16.744-8.812.176-.176,5.816.7,5.816,5.464,0,4.582-8.107,11.985-22.56,11.985-16.744,0-28.023-11.1-28.023-27.671,0-16.039,11.456-28.2,27.142-28.2,15.334,0,25.556,10.751,25.556,26.613v.881c0,2.291-.7,3.172-3.349,3.172H207.422C207.951,52.637,215.177,59.334,225.223,59.334Zm13.747-23.793c-.529-9.165-6.169-15.157-14.981-15.157a16.937,16.937,0,0,0-16.744,15.157Z" transform="translate(150.361 9.234)" fill="#0da0a0"/><path d="M229.9,71.036V1.242A5.777,5.777,0,0,1,233.954.008c3.349,0,6.874,1.762,6.874,9.341V71.036c0,4.054-1.939,5.111-4.935,5.111h-1.057C232.015,76.323,229.9,75.09,229.9,71.036Z" transform="translate(175.294 0)" fill="#0da0a0"/><path d="M251.8,82.88c0,4.054-2.115,5.111-4.935,5.111h-1.234c-2.82,0-4.935-1.234-4.935-5.111V14.143c0-.352,1.762-1.234,4.054-1.234,3.349,0,6.7,1.762,6.874,9.165A21.405,21.405,0,0,1,270.31,12.2c14.276,0,24.851,10.927,24.851,27.847,0,16.744-10.4,28.023-25.2,28.023A21.014,21.014,0,0,1,251.8,58.2Zm-.176-39.48c0,8.989,7.579,15.51,16.391,15.51,9.87,0,16.567-7.579,16.567-18.859,0-11.1-6.874-18.859-16.391-18.859a16.939,16.939,0,0,0-16.567,11.1Z" transform="translate(183.529 9.306)" fill="#0da0a0"/><path d="M273.4,17.792A8.663,8.663,0,0,1,282.215,8.8a8.46,8.46,0,0,1,8.812,8.989,8.812,8.812,0,1,1-17.625,0Zm16.039,0a7.085,7.085,0,0,0-7.226-7.4,6.986,6.986,0,0,0-7.226,7.4,7.226,7.226,0,1,0,14.452,0Zm-3,3.7c.176.176-.529.881-1.41.881a1.452,1.452,0,0,1-1.41-.881L282.039,19.2h-.881v2.115c0,.7-.353,1.234-1.057,1.234h-.353c-.7,0-1.057-.529-1.057-1.41v-6.7a1.257,1.257,0,0,1,1.234-1.41h2.82c2.467,0,3.877,1.057,3.877,3a2.681,2.681,0,0,1-2.115,2.82Zm-3.877-4.054c1.057,0,1.586-.529,1.586-1.234,0-.881-.529-1.234-1.586-1.234h-1.586V17.44Z" transform="translate(208.459 6.714)" fill="#0da0a0"/><path d="M84.952,5H15.334A15.5,15.5,0,0,0,0,20.51V57.874A15.344,15.344,0,0,0,15.334,73.208h9.341V90.657a4.406,4.406,0,0,0,8.812,0V73.208h4.23V90.657a4.406,4.406,0,0,0,8.812,0V73.208H58.514A15.344,15.344,0,0,0,73.848,57.874V23.33L87.243,10.287C90.239,7.467,89.181,5,84.952,5ZM59.219,20.157a4.23,4.23,0,1,1,4.23-4.23,4.288,4.288,0,0,1-4.23,4.23Z" transform="translate(0 3.82)" fill="#fd3269"/><circle cx="4.23" cy="4.23" r="4.23" transform="translate(54.989 15.518)" fill="#fff"/></g></svg>